<mxfile host="app.diagrams.net" modified="2024-05-14T08:41:10.468Z" agent="Mozilla/5.0 (Macintosh; Intel Mac OS X 10_15_7) AppleWebKit/537.36 (KHTML, like Gecko) Chrome/124.0.0.0 Safari/537.36" version="24.4.0" etag="OVsWYukbaKzpg_FiAPno" type="github">
  <diagram name="第 1 页" id="eANgrpfl19V5May6iINn">
    <mxGraphModel>
      <root>
        <mxCell id="0" />
        <mxCell id="1" parent="0" />
      </root>
    </mxGraphModel>
  </diagram>
</mxfile>
